<?xml version="1.0" standalone="no"?>
<!DOCTYPE svg PUBLIC "-//W3C//DTD SVG 20010904//EN"
 "http://www.w3.org/TR/2001/REC-SVG-20010904/DTD/svg10.dtd">
<svg version="1.0" xmlns="http://www.w3.org/2000/svg"
 width="250.000000pt" height="250.000000pt" viewBox="0 0 250.000000 250.000000"
 preserveAspectRatio="xMidYMid meet">
<metadata>
Created by potrace 1.13, written by Peter Selinger 2001-2015
</metadata>
<g transform="translate(0.000000,250.000000) scale(0.100000,-0.100000)"
fill="#000000" stroke="none">
<path d="M0 1250 l0 -1250 1250 0 1250 0 0 1250 0 1250 -1250 0 -1250 0 0
-1250z m1970 875 c0 -2 -57 -60 -128 -129 -96 -95 -129 -122 -137 -112 -5 7
-23 12 -38 11 -16 -1 -32 5 -37 14 -6 11 -7 4 -3 -20 9 -59 -26 -125 -79 -149
-24 -11 -62 -20 -85 -20 l-43 0 0 -60 0 -60 -100 0 c-97 0 -101 1 -110 24 -8
22 -16 25 -74 28 -64 3 -66 2 -75 -24 -9 -26 -13 -28 -70 -28 -34 0 -61 4 -61
9 0 6 -16 3 -35 -5 -19 -7 -52 -14 -73 -14 -43 0 -138 26 -147 40 -3 5 4 28
15 50 l21 40 30 -15 c17 -9 48 -15 72 -13 34 2 42 7 42 23 0 14 -13 24 -55 38
-105 37 -151 95 -130 167 5 16 5 30 0 32 -8 3 -13 51 -11 125 1 41 2 42 39 46
53 5 1272 8 1272 2z m-1370 -1264 c0 -23 -5 -30 -22 -33 -29 -4 -40 -43 -40
-153 -1 -104 11 -142 44 -147 17 -2 24 -11 26 -31 3 -28 3 -28 -50 -25 -52 3
-53 4 -67 43 -19 53 -21 254 -2 317 14 48 21 54 84 57 24 1 27 -3 27 -28z
m179 20 c37 -10 54 -68 55 -196 0 -82 -4 -123 -18 -162 l-18 -53 -49 0 c-49 0
-50 1 -47 28 2 19 9 28 25 30 29 4 43 53 42 152 0 94 -16 144 -46 148 -18 3
-23 10 -23 33 0 25 4 29 28 28 15 -1 38 -4 51 -8z m301 -46 c0 -53 1 -55 28
-55 15 0 38 -7 50 -16 21 -14 22 -22 22 -155 l0 -139 -30 0 -30 0 0 130 c0
109 -2 130 -15 130 -15 0 -19 -42 -20 -213 0 -46 0 -47 -32 -47 l-33 0 0 210
0 210 30 0 c30 0 30 -1 30 -55z m388 -1 c3 -52 3 -52 42 -58 24 -4 43 -14 50
-25 5 -11 10 -71 10 -133 0 -140 -6 -153 -79 -153 -78 0 -80 5 -81 180 -2 268
-4 247 28 243 25 -3 27 -7 30 -54z m-188 -149 l16 -90 12 83 c6 46 14 88 17
93 4 5 18 9 32 9 24 0 25 -1 18 -47 -14 -100 -65 -409 -70 -420 -2 -7 -16 -13
-30 -13 -28 0 -31 17 -17 95 6 28 -1 89 -23 208 -17 92 -29 170 -26 173 3 3
17 4 31 2 23 -3 26 -9 40 -93z m448 72 c3 -12 -3 -17 -20 -17 -43 0 -48 -16
-48 -147 l0 -123 -30 0 -30 0 0 148 c0 82 3 151 6 154 3 3 31 5 62 4 45 -1 58
-5 60 -19z m85 14 c4 -1 7 -68 7 -151 l0 -150 -30 0 -30 0 0 148 c0 82 3 151
6 154 3 3 13 5 22 3 9 -2 20 -4 25 -4z m183 -12 c8 -6 14 -27 14 -46 0 -32 -2
-34 -27 -31 -19 2 -29 10 -31 23 -6 30 -21 42 -32 25 -17 -27 -11 -42 40 -88
48 -43 50 -47 50 -97 0 -63 -14 -78 -74 -79 -54 -1 -86 24 -86 66 0 27 3 29
33 26 24 -2 32 -8 32 -23 0 -11 8 -21 18 -23 13 -3 17 3 17 26 0 22 -10 39
-37 63 -47 40 -62 65 -63 105 0 30 18 55 50 67 21 9 79 0 96 -14z m-1362 -14
c4 -14 10 -25 15 -25 5 0 12 11 15 25 5 18 13 25 31 25 31 0 32 -16 4 -80 -19
-45 -20 -50 -5 -78 15 -29 15 -31 -4 -37 -11 -3 -25 -3 -31 1 -14 8 -79 144
-79 165 0 37 45 41 54 4z"/>
</g>
</svg>
